<svg version="1.1" id="Layer_1" xmlns="http://www.w3.org/2000/svg" xmlns:xlink="http://www.w3.org/1999/xlink" x="0px" y="0px"
	 width="100%" viewBox="0 0 1024 1024" enable-background="new 0 0 1024 1024" xml:space="preserve">
<path fill="#FDFDFD" opacity="1.000000" stroke="none" 
	d="
M567.000000,1025.000000 
	C378.000000,1025.000000 189.500000,1025.000000 1.000000,1025.000000 
	C1.000000,683.666687 1.000000,342.333344 1.000000,1.000000 
	C342.333344,1.000000 683.666687,1.000000 1025.000000,1.000000 
	C1025.000000,342.333344 1025.000000,683.666687 1025.000000,1025.000000 
	C872.500000,1025.000000 720.000000,1025.000000 567.000000,1025.000000 
M483.164215,68.736946 
	C461.910278,71.667229 440.369049,73.261200 419.451965,77.758286 
	C327.170166,97.598457 248.243103,141.947067 184.915649,211.938599 
	C94.776855,311.562866 56.905380,429.182648 70.445824,562.733398 
	C77.036369,627.736633 98.142601,688.463257 132.373215,744.168823 
	C185.117706,830.003174 258.251129,892.043457 352.466583,928.322937 
	C440.913391,962.381104 531.586121,968.173706 623.245667,944.301575 
	C740.463684,913.772949 831.106995,846.290100 894.406555,742.814880 
	C930.570435,683.698303 950.804199,619.170898 956.731995,550.244690 
	C960.246704,509.377960 957.986206,468.720673 950.125916,428.374786 
	C934.570923,348.533569 900.183899,277.813599 846.037842,217.265717 
	C780.011414,143.432800 698.222778,96.212654 600.905884,76.456573 
	C562.322144,68.623772 523.377197,66.026299 483.164215,68.736946 
z"/>
<path fill="#2C567B" opacity="1.000000" stroke="none" 
	d="
M483.626587,68.693680 
	C523.377197,66.026299 562.322144,68.623772 600.905884,76.456573 
	C698.222778,96.212654 780.011414,143.432800 846.037842,217.265717 
	C900.183899,277.813599 934.570923,348.533569 950.125916,428.374786 
	C957.986206,468.720673 960.246704,509.377960 956.731995,550.244690 
	C950.804199,619.170898 930.570435,683.698303 894.406555,742.814880 
	C831.106995,846.290100 740.463684,913.772949 623.245667,944.301575 
	C531.586121,968.173706 440.913391,962.381104 352.466583,928.322937 
	C258.251129,892.043457 185.117706,830.003174 132.373215,744.168823 
	C98.142601,688.463257 77.036369,627.736633 70.445824,562.733398 
	C56.905380,429.182648 94.776855,311.562866 184.915649,211.938599 
	C248.243103,141.947067 327.170166,97.598457 419.451965,77.758286 
	C440.369049,73.261200 461.910278,71.667229 483.626587,68.693680 
M441.030640,342.992065 
	C442.717834,342.427551 445.165802,342.381500 445.963501,341.210846 
	C449.888947,335.450226 456.815399,336.834808 462.308380,334.559479 
	C467.674316,345.379150 482.733673,349.494720 493.168457,342.882385 
	C494.059082,342.318054 495.061432,340.726379 494.870544,339.864929 
	C493.990234,335.892487 492.705414,332.009644 491.526062,327.958679 
	C489.517487,328.613983 488.134216,329.177551 486.697662,329.512878 
	C482.368347,330.523468 479.583008,328.793243 479.465637,324.410095 
	C479.225525,315.442047 479.393616,306.463104 479.393616,296.779236 
	C484.179657,296.779236 488.549286,296.779236 492.862122,296.779236 
	C492.862122,291.469330 492.862122,286.878754 492.862122,281.685364 
	C488.350433,281.685364 484.137268,281.685364 479.258362,281.685364 
	C479.258362,275.854126 479.258362,270.627289 479.258362,265.541290 
	C472.801727,265.541290 467.042633,265.541290 460.938721,265.541290 
	C460.938721,271.005341 460.938721,276.113312 460.938721,281.744415 
	C458.466766,281.744415 456.298309,281.475922 454.242767,281.841827 
	C452.942047,282.073395 451.809723,283.250885 449.861023,284.006989 
	C447.574432,283.337982 445.287811,282.668976 442.927734,281.286682 
	C440.907654,278.389404 438.887573,275.492126 437.301971,272.099884 
	C441.873596,269.173950 443.153442,264.886841 441.595306,259.982971 
	C440.064484,255.164963 436.169800,253.109665 431.262146,252.799042 
	C427.322876,252.549683 424.069946,253.736374 421.831024,257.153229 
	C418.890381,261.640930 419.728180,265.966400 422.075989,270.945862 
	C419.068481,274.110443 416.272614,277.520874 412.980713,280.355164 
	C410.703400,282.315826 407.741486,283.481293 404.902679,284.209747 
	C404.223358,283.320251 403.577850,281.693054 402.859192,281.660095 
	C397.925385,281.433807 392.976196,281.541260 387.890778,281.541260 
	C387.655304,283.967926 387.469025,285.887756 387.271820,287.919891 
	C369.737030,277.152222 356.075592,277.880341 345.787659,289.982758 
	C335.457214,302.135162 335.799194,322.744751 346.619110,334.575409 
	C350.777100,339.121857 355.870270,342.199036 362.072632,343.013092 
	C371.506348,344.251312 379.770874,341.773560 386.458282,333.975311 
	C387.903778,348.130463 380.927887,355.976746 367.818024,354.672791 
	C361.436249,354.038086 355.267090,351.265533 348.438507,349.298462 
	C346.649719,352.563965 344.454193,356.572021 341.582672,361.814178 
	C348.081635,364.258209 353.731995,367.164368 359.732025,368.501007 
	C382.757050,373.630371 399.752533,363.666168 405.237396,342.920074 
	C409.429901,345.360107 413.356537,348.785370 417.878204,350.005615 
	C424.403015,351.766479 431.348389,352.057953 438.143097,352.641571 
	C439.268616,352.738220 440.540710,351.127930 442.087494,350.072937 
	C441.193878,348.192474 440.381226,346.482422 439.797791,344.176117 
	C439.960114,343.782501 440.122437,343.388916 441.030640,342.992065 
M368.050415,605.147461 
	C368.033020,604.762695 368.015656,604.377869 368.629852,603.713928 
	C378.143524,599.097900 381.868195,592.076843 380.735291,581.475342 
	C380.595306,580.165100 381.330536,578.148438 382.348206,577.418945 
	C398.958832,565.512329 411.291809,549.471436 424.552032,534.308716 
	C425.494904,533.230530 427.958832,532.558716 429.362701,532.953247 
	C440.941925,536.207275 451.759247,530.157959 454.012024,518.438232 
	C454.719696,514.756409 456.522827,513.707092 459.746429,512.934509 
	C476.686981,508.874298 493.834229,507.092743 511.250305,507.125427 
	C588.410645,507.270203 665.571106,507.314850 742.731506,507.251526 
	C747.156189,507.247894 749.822693,508.034210 751.981506,512.483093 
	C756.015625,520.796570 765.153564,524.164124 774.074158,521.688782 
	C782.288086,519.409485 788.185181,511.656525 788.153870,503.178131 
	C788.120422,494.123169 782.052185,486.256042 773.435974,484.097107 
	C764.790588,481.930878 755.709534,485.472961 751.859680,493.530548 
	C749.947510,497.532562 747.591797,497.995453 743.810669,497.990601 
	C665.816528,497.890839 587.822205,497.951019 509.828094,497.863953 
	C491.562958,497.843567 473.610291,499.766266 455.973358,504.652588 
	C454.611298,505.029968 452.168793,504.091980 451.215424,502.945038 
	C444.484161,494.847015 434.144501,492.748138 425.228241,497.978119 
	C416.450775,503.126678 413.224670,513.498779 417.799194,523.178040 
	C418.967468,525.649902 418.561890,526.995972 416.952423,528.786499 
	C408.709717,537.955994 400.770233,547.409485 392.280823,556.341736 
	C387.066528,561.828064 381.055450,566.557190 375.627167,571.424561 
	C361.365723,562.812378 351.479797,565.262329 343.222931,578.486877 
	C342.498871,579.646606 340.371887,580.499573 338.882812,580.520569 
	C328.886505,580.661438 318.886475,580.533691 308.887665,580.502930 
	C304.630920,580.489868 300.374115,580.500793 295.727417,580.500793 
	C295.727417,576.929138 295.724060,574.125916 295.727936,571.322632 
	C295.758270,549.324402 295.790710,527.326172 295.819427,505.327972 
	C295.821167,503.994965 296.291687,502.341492 295.679962,501.396545 
	C294.462524,499.515900 292.643127,498.024933 291.072418,496.372986 
	C289.479553,497.997650 287.695740,499.485107 286.383392,501.311371 
	C285.822357,502.092102 286.222382,503.579071 286.222412,504.745117 
	C286.225250,594.904785 286.230377,685.064453 286.244141,775.224121 
	C286.244598,778.223083 285.753510,781.397156 286.584381,784.161072 
	C287.161804,786.081787 289.614838,787.438660 291.229950,789.047363 
	C292.745392,787.408569 294.362091,785.847412 295.714142,784.083374 
	C296.116272,783.558777 295.775665,782.464600 295.774933,781.631409 
	C295.753479,756.800110 295.731842,731.968811 295.710602,707.137512 
	C295.709106,705.383362 295.710388,703.629150 295.710388,701.661621 
	C313.279541,701.661621 330.101654,701.400574 346.911804,701.737549 
	C362.626282,702.052490 376.058380,708.249268 385.250610,721.030090 
	C392.669739,731.345581 398.552429,742.766174 404.995361,753.494385 
	C403.290955,755.316162 402.472443,756.135437 401.715912,757.008423 
	C395.414948,764.279419 394.976807,774.850769 400.651550,782.370178 
	C406.187500,789.705688 415.487915,792.090881 423.888702,788.329529 
	C432.717773,784.376404 437.078247,775.826721 435.166779,766.216553 
	C433.295074,756.806641 425.931335,750.964050 415.960907,750.467773 
	C414.318909,750.385986 412.104706,748.881592 411.288391,747.407166 
	C408.067047,741.588989 405.435059,735.448242 402.336182,729.557861 
	C389.335419,704.845398 369.530762,691.308594 340.890350,691.951599 
	C327.732330,692.247009 314.560425,691.925049 301.394836,691.884827 
	C299.616364,691.879395 297.837921,691.884094 295.924500,691.884094 
	C295.924500,674.339966 295.924500,657.418030 295.924500,640.037842 
	C297.338593,640.037842 298.459991,640.039062 299.581390,640.037659 
	C326.579071,640.004272 353.578979,640.162415 380.573395,639.848572 
	C392.424805,639.710815 402.975800,642.868896 412.219360,650.084351 
	C420.225952,656.334167 427.943481,662.955261 435.763580,669.442749 
	C444.792633,676.933167 454.956787,682.182556 466.592499,683.873352 
	C473.648529,684.898560 480.850281,685.305664 487.987854,685.319641 
	C521.817749,685.385803 555.648132,685.184082 589.478088,685.247620 
	C591.170715,685.250793 593.677673,686.395630 594.419434,687.761597 
	C599.430359,696.988403 605.427185,700.842285 614.677002,700.152039 
	C623.013428,699.529907 629.016052,694.045776 632.150146,684.598145 
	C632.618652,683.185974 634.118896,681.395508 635.441162,681.094299 
	C658.349365,675.877075 677.261230,664.139954 692.489868,646.398987 
	C695.888855,642.439270 699.152832,640.835205 704.785095,642.192810 
	C713.338806,644.254578 721.458679,639.319763 725.222595,631.357300 
	C728.913452,623.549377 727.341187,614.854370 721.153748,608.855591 
	C715.111938,602.997986 706.232788,601.851440 698.473450,605.926941 
	C690.870667,609.920227 685.922485,618.321350 688.950012,626.378113 
	C691.923157,634.290283 688.513306,638.256592 683.457886,642.617188 
	C681.066895,644.679565 678.983826,647.095032 676.707520,649.294861 
	C664.905701,660.700500 650.796448,667.877258 634.942078,671.656616 
	C633.311218,672.045410 630.268250,671.402039 629.616150,670.252869 
	C622.697449,658.058777 602.152222,656.867493 594.824707,673.258667 
	C594.278992,674.479431 592.259827,675.794067 590.921570,675.798462 
	C553.591614,675.920349 516.260986,675.943604 478.930878,675.829712 
	C465.150909,675.787720 452.718445,671.533875 442.025574,662.689880 
	C435.992676,657.700134 429.972687,652.685425 424.132111,647.474365 
	C410.697693,635.487854 395.145508,629.906189 377.066254,630.199402 
	C351.741302,630.610046 326.405212,630.334534 301.073883,630.352295 
	C299.310638,630.353516 297.547394,630.352417 295.821716,630.352417 
	C295.821716,625.010010 295.821716,620.426208 295.821716,615.332458 
	C298.291260,615.332458 300.415253,615.332031 302.539246,615.332581 
	C330.369629,615.339050 358.200348,615.262878 386.030212,615.384705 
	C401.559021,615.452698 415.078125,610.545288 426.651459,600.157410 
	C433.719360,593.813477 440.523621,587.070862 448.178497,581.516296 
	C455.368652,576.298889 463.488190,572.349365 471.266296,567.961548 
	C474.329590,566.233459 476.321198,567.013245 478.456116,570.260559 
	C482.725342,576.754333 489.319794,579.639221 497.046661,578.492737 
	C505.073517,577.301819 510.742035,572.786011 513.301086,564.820618 
	C513.591919,563.915344 514.021179,563.054565 514.457214,562.001770 
	C531.654968,562.001770 548.648071,561.912170 565.636414,562.156250 
	C567.144226,562.177917 569.170044,564.068848 570.020264,565.608093 
	C574.597778,573.895813 583.454224,578.235535 592.252502,576.143860 
	C601.054077,574.051270 607.518677,566.182495 607.577332,557.490417 
	C607.638000,548.500427 601.315063,540.741821 592.078247,538.472229 
	C583.417542,536.344177 574.540710,540.303406 570.457520,548.821838 
	C568.926514,552.015747 567.139526,552.607666 563.992920,552.595642 
	C549.828857,552.541687 535.657837,552.532104 521.502197,552.945312 
	C516.333130,553.096130 512.310669,552.753357 509.968994,547.205383 
	C509.113586,545.178772 506.539490,543.578064 504.399445,542.442993 
	C492.751862,536.265381 480.127014,541.513916 475.746185,554.006897 
	C475.198700,555.568176 473.761444,557.609009 472.369293,557.956421 
	C461.789764,560.596558 452.503021,565.646545 444.239380,572.578369 
	C435.944305,579.536499 428.241608,587.256287 419.579529,593.701904 
	C413.837189,597.974854 407.184418,602.240662 400.366211,603.569275 
	C389.873535,605.613892 378.889008,605.134583 368.050415,605.147461 
M632.987183,341.852783 
	C643.727112,345.101807 653.271545,343.246796 661.269592,334.640747 
	C663.374878,346.860870 657.983887,354.498322 646.500061,354.684021 
	C641.042053,354.772278 635.513550,352.743256 630.087646,351.390381 
	C628.108826,350.897034 626.334656,349.583252 624.063110,348.440552 
	C621.734741,352.852753 619.603638,356.891083 617.339905,361.180847 
	C627.168640,367.540527 637.520325,370.176483 648.565613,369.368134 
	C669.740723,367.818420 679.882202,356.599365 679.938049,335.268799 
	C679.980347,319.118286 680.018738,302.967743 680.057739,286.817230 
	C680.061951,285.075562 680.058350,283.333893 680.058350,281.552063 
	C673.842834,281.552063 668.417053,281.552063 662.737427,281.552063 
	C662.463501,283.754150 662.217590,285.731293 661.931213,288.033783 
	C649.642334,275.716370 632.655090,278.883545 623.939392,286.560150 
	C608.614563,300.057953 609.758972,332.865356 632.987183,341.852783 
M593.027649,338.597229 
	C603.553955,329.646851 607.088440,318.242188 604.193726,304.967743 
	C601.462585,292.443176 593.461121,284.606079 581.139404,281.285919 
	C566.075684,277.226868 550.600037,282.471558 543.007324,294.052185 
	C535.053894,306.182892 535.555847,321.874329 544.263733,333.324860 
	C554.807068,347.188904 576.232910,349.727844 593.027649,338.597229 
M524.859253,307.500000 
	C524.859253,290.925110 524.859253,274.350250 524.859253,257.733154 
	C518.270325,257.733154 512.377014,257.733154 506.479492,257.733154 
	C506.479492,286.829285 506.479492,315.544617 506.479492,344.315796 
	C512.733337,344.315796 518.626648,344.315796 524.854309,344.315796 
	C524.854309,332.106232 524.854309,320.303131 524.859253,307.500000 
z"/>
<path fill="#F7F9FA" opacity="1.000000" stroke="none" 
	d="
M368.113159,605.726074 
	C378.889008,605.134583 389.873535,605.613892 400.366211,603.569275 
	C407.184418,602.240662 413.837189,597.974854 419.579529,593.701904 
	C428.241608,587.256287 435.944305,579.536499 444.239380,572.578369 
	C452.503021,565.646545 461.789764,560.596558 472.369293,557.956421 
	C473.761444,557.609009 475.198700,555.568176 475.746185,554.006897 
	C480.127014,541.513916 492.751862,536.265381 504.399445,542.442993 
	C506.539490,543.578064 509.113586,545.178772 509.968994,547.205383 
	C512.310669,552.753357 516.333130,553.096130 521.502197,552.945312 
	C535.657837,552.532104 549.828857,552.541687 563.992920,552.595642 
	C567.139526,552.607666 568.926514,552.015747 570.457520,548.821838 
	C574.540710,540.303406 583.417542,536.344177 592.078247,538.472229 
	C601.315063,540.741821 607.638000,548.500427 607.577332,557.490417 
	C607.518677,566.182495 601.054077,574.051270 592.252502,576.143860 
	C583.454224,578.235535 574.597778,573.895813 570.020264,565.608093 
	C569.170044,564.068848 567.144226,562.177917 565.636414,562.156250 
	C548.648071,561.912170 531.654968,562.001770 514.457214,562.001770 
	C514.021179,563.054565 513.591919,563.915344 513.301086,564.820618 
	C510.742035,572.786011 505.073517,577.301819 497.046661,578.492737 
	C489.319794,579.639221 482.725342,576.754333 478.456116,570.260559 
	C476.321198,567.013245 474.329590,566.233459 471.266296,567.961548 
	C463.488190,572.349365 455.368652,576.298889 448.178497,581.516296 
	C440.523621,587.070862 433.719360,593.813477 426.651459,600.157410 
	C415.078125,610.545288 401.559021,615.452698 386.030212,615.384705 
	C358.200348,615.262878 330.369629,615.339050 302.539246,615.332581 
	C300.415253,615.332031 298.291260,615.332458 295.821716,615.332458 
	C295.821716,620.426208 295.821716,625.010010 295.821716,630.352417 
	C297.547394,630.352417 299.310638,630.353516 301.073883,630.352295 
	C326.405212,630.334534 351.741302,630.610046 377.066254,630.199402 
	C395.145508,629.906189 410.697693,635.487854 424.132111,647.474365 
	C429.972687,652.685425 435.992676,657.700134 442.025574,662.689880 
	C452.718445,671.533875 465.150909,675.787720 478.930878,675.829712 
	C516.260986,675.943604 553.591614,675.920349 590.921570,675.798462 
	C592.259827,675.794067 594.278992,674.479431 594.824707,673.258667 
	C602.152222,656.867493 622.697449,658.058777 629.616150,670.252869 
	C630.268250,671.402039 633.311218,672.045410 634.942078,671.656616 
	C650.796448,667.877258 664.905701,660.700500 676.707520,649.294861 
	C678.983826,647.095032 681.066895,644.679565 683.457886,642.617188 
	C688.513306,638.256592 691.923157,634.290283 688.950012,626.378113 
	C685.922485,618.321350 690.870667,609.920227 698.473450,605.926941 
	C706.232788,601.851440 715.111938,602.997986 721.153748,608.855591 
	C727.341187,614.854370 728.913452,623.549377 725.222595,631.357300 
	C721.458679,639.319763 713.338806,644.254578 704.785095,642.192810 
	C699.152832,640.835205 695.888855,642.439270 692.489868,646.398987 
	C677.261230,664.139954 658.349365,675.877075 635.441162,681.094299 
	C634.118896,681.395508 632.618652,683.185974 632.150146,684.598145 
	C629.016052,694.045776 623.013428,699.529907 614.677002,700.152039 
	C605.427185,700.842285 599.430359,696.988403 594.419434,687.761597 
	C593.677673,686.395630 591.170715,685.250793 589.478088,685.247620 
	C555.648132,685.184082 521.817749,685.385803 487.987854,685.319641 
	C480.850281,685.305664 473.648529,684.898560 466.592499,683.873352 
	C454.956787,682.182556 444.792633,676.933167 435.763580,669.442749 
	C427.943481,662.955261 420.225952,656.334167 412.219360,650.084351 
	C402.975800,642.868896 392.424805,639.710815 380.573395,639.848572 
	C353.578979,640.162415 326.579071,640.004272 299.581390,640.037659 
	C298.459991,640.039062 297.338593,640.037842 295.924500,640.037842 
	C295.924500,657.418030 295.924500,674.339966 295.924500,691.884094 
	C297.837921,691.884094 299.616364,691.879395 301.394836,691.884827 
	C314.560425,691.925049 327.732330,692.247009 340.890350,691.951599 
	C369.530762,691.308594 389.335419,704.845398 402.336182,729.557861 
	C405.435059,735.448242 408.067047,741.588989 411.288391,747.407166 
	C412.104706,748.881592 414.318909,750.385986 415.960907,750.467773 
	C425.931335,750.964050 433.295074,756.806641 435.166779,766.216553 
	C437.078247,775.826721 432.717773,784.376404 423.888702,788.329529 
	C415.487915,792.090881 406.187500,789.705688 400.651550,782.370178 
	C394.976807,774.850769 395.414948,764.279419 401.715912,757.008423 
	C402.472443,756.135437 403.290955,755.316162 404.995361,753.494385 
	C398.552429,742.766174 392.669739,731.345581 385.250610,721.030090 
	C376.058380,708.249268 362.626282,702.052490 346.911804,701.737549 
	C330.101654,701.400574 313.279541,701.661621 295.710388,701.661621 
	C295.710388,703.629150 295.709106,705.383362 295.710602,707.137512 
	C295.731842,731.968811 295.753479,756.800110 295.774933,781.631409 
	C295.775665,782.464600 296.116272,783.558777 295.714142,784.083374 
	C294.362091,785.847412 292.745392,787.408569 291.229919,789.047363 
	C289.614838,787.438660 287.161804,786.081787 286.584381,784.161072 
	C285.753510,781.397156 286.244598,778.223083 286.244141,775.224121 
	C286.230377,685.064453 286.225250,594.904785 286.222412,504.745117 
	C286.222382,503.579071 285.822357,502.092102 286.383392,501.311371 
	C287.695740,499.485107 289.479553,497.997650 291.072418,496.372986 
	C292.643127,498.024933 294.462524,499.515900 295.679962,501.396545 
	C296.291687,502.341492 295.821167,503.994965 295.819427,505.327972 
	C295.790710,527.326172 295.758270,549.324402 295.727936,571.322632 
	C295.724060,574.125916 295.727417,576.929138 295.727417,580.500793 
	C300.374115,580.500793 304.630920,580.489868 308.887665,580.502930 
	C318.886475,580.533691 328.886505,580.661438 338.882812,580.520569 
	C340.371887,580.499573 342.498871,579.646606 343.222931,578.486877 
	C351.479797,565.262329 361.365723,562.812378 375.627167,571.424561 
	C381.055450,566.557190 387.066528,561.828064 392.280823,556.341736 
	C400.770233,547.409485 408.709717,537.955994 416.952423,528.786499 
	C418.561890,526.995972 418.967468,525.649902 417.799194,523.178040 
	C413.224670,513.498779 416.450775,503.126678 425.228241,497.978119 
	C434.144501,492.748138 444.484161,494.847015 451.215424,502.945038 
	C452.168793,504.091980 454.611298,505.029968 455.973358,504.652588 
	C473.610291,499.766266 491.562958,497.843567 509.828094,497.863953 
	C587.822205,497.951019 665.816528,497.890839 743.810669,497.990601 
	C747.591797,497.995453 749.947510,497.532562 751.859680,493.530548 
	C755.709534,485.472961 764.790588,481.930878 773.435974,484.097107 
	C782.052185,486.256042 788.120422,494.123169 788.153870,503.178131 
	C788.185181,511.656525 782.288086,519.409485 774.074158,521.688782 
	C765.153564,524.164124 756.015625,520.796570 751.981506,512.483093 
	C749.822693,508.034210 747.156189,507.247894 742.731506,507.251526 
	C665.571106,507.314850 588.410645,507.270203 511.250305,507.125427 
	C493.834229,507.092743 476.686981,508.874298 459.746429,512.934509 
	C456.522827,513.707092 454.719696,514.756409 454.012024,518.438232 
	C451.759247,530.157959 440.941925,536.207275 429.362701,532.953247 
	C427.958832,532.558716 425.494904,533.230530 424.552032,534.308716 
	C411.291809,549.471436 398.958832,565.512329 382.348206,577.418945 
	C381.330536,578.148438 380.595306,580.165100 380.735291,581.475342 
	C381.868195,592.076843 378.143524,599.097900 367.896912,603.836060 
	C362.773346,603.976624 358.382660,603.995056 353.700562,603.835205 
	C350.050171,600.136108 346.772858,596.531494 343.290527,593.137207 
	C341.971741,591.851868 340.202332,590.210022 338.600525,590.167847 
	C328.798584,589.910278 318.985840,590.067749 309.176666,590.081909 
	C304.762970,590.088257 300.349274,590.083008 295.853088,590.083008 
	C295.853088,595.508118 295.853088,600.271118 295.853088,605.627319 
	C315.397614,605.627319 334.639648,605.627319 354.341003,605.744873 
	C359.237976,605.816956 363.675568,605.771484 368.113159,605.726074 
M616.388611,690.215576 
	C620.749329,688.265503 623.324890,685.085022 622.974854,680.127197 
	C622.665649,675.747986 620.326477,672.615540 616.295532,670.991028 
	C612.334351,669.394653 608.750366,670.601318 605.680786,673.299927 
	C602.324768,676.250427 601.504028,681.132996 603.501465,685.160889 
	C605.724426,689.643677 609.605408,691.351379 616.388611,690.215576 
M489.281738,550.504089 
	C485.534698,553.266235 483.167358,556.635010 484.510406,561.577271 
	C485.601990,565.594116 487.994690,568.426697 492.228088,569.136292 
	C496.865387,569.913574 500.843567,568.694092 503.399780,564.432373 
	C505.822601,560.392883 505.470520,556.349304 502.530579,552.832703 
	C499.158478,548.799133 494.830078,547.867554 489.281738,550.504089 
M416.410767,760.040405 
	C410.106171,760.750122 406.633759,763.668152 405.971283,768.813232 
	C405.348907,773.646912 407.712738,777.987610 411.966614,779.822693 
	C417.566711,782.238403 423.828156,779.451477 425.737915,773.693115 
	C427.867828,767.270935 424.615845,762.085083 416.410767,760.040405 
M709.102783,612.983765 
	C704.199158,612.293335 700.674805,614.430786 698.455872,618.608459 
	C696.601379,622.099915 696.837585,625.718811 699.282104,628.909668 
	C701.901733,632.328979 705.396362,633.880554 709.765320,633.105774 
	C714.048523,632.346252 717.475647,628.625366 717.919067,624.228394 
	C718.414612,619.313965 715.699463,615.549683 709.102783,612.983765 
M351.473663,587.822693 
	C352.107056,589.161072 352.543243,590.645691 353.408234,591.812439 
	C357.013885,596.675659 363.695923,597.245300 368.318390,593.200134 
	C372.741364,589.329468 372.921844,582.928894 368.667145,578.634888 
	C365.520355,575.459045 361.608185,574.812317 357.648285,576.367310 
	C352.967285,578.205505 350.954773,582.040527 351.473663,587.822693 
M426.467712,519.740540 
	C428.861603,523.102051 432.092041,524.899231 436.241730,524.518616 
	C442.172211,523.974609 446.308075,518.647644 445.291931,513.090881 
	C444.158020,506.890106 438.252686,503.108154 432.333435,504.791962 
	C426.211578,506.533417 423.649933,512.374207 426.467712,519.740540 
M760.746033,509.734283 
	C765.474304,513.557068 769.951294,514.296082 773.924988,511.604980 
	C777.665283,509.071960 779.614990,505.525635 778.546936,500.901581 
	C777.603577,496.817688 774.947388,494.067352 770.868835,493.245575 
	C766.684509,492.402435 762.912964,493.528381 760.276672,497.174072 
	C757.412415,501.135071 757.300232,505.153717 760.746033,509.734283 
M593.772644,565.575989 
	C598.774414,561.028809 599.526794,555.185059 595.680725,550.754883 
	C591.864563,546.359131 585.292908,545.888000 580.965759,549.699951 
	C577.470459,552.779114 576.690979,558.195801 579.131348,562.447388 
	C581.808655,567.111694 586.712280,568.348083 593.772644,565.575989 
z"/>
<path fill="#FAFBFB" opacity="1.000000" stroke="none" 
	d="
M404.424744,342.840240 
	C399.752533,363.666168 382.757050,373.630371 359.732025,368.501007 
	C353.731995,367.164368 348.081635,364.258209 341.582672,361.814178 
	C344.454193,356.572021 346.649719,352.563965 348.438507,349.298462 
	C355.267090,351.265533 361.436249,354.038086 367.818024,354.672791 
	C380.927887,355.976746 387.903778,348.130463 386.458282,333.975311 
	C379.770874,341.773560 371.506348,344.251312 362.072632,343.013092 
	C355.870270,342.199036 350.777100,339.121857 346.619110,334.575409 
	C335.799194,322.744751 335.457214,302.135162 345.787659,289.982758 
	C356.075592,277.880341 369.737030,277.152222 387.271820,287.919891 
	C387.469025,285.887756 387.655304,283.967926 387.890778,281.541260 
	C392.976196,281.541260 397.925385,281.433807 402.859192,281.660095 
	C403.577850,281.693054 404.223358,283.320251 404.906403,285.067383 
	C404.748322,304.896759 404.586517,323.868500 404.424744,342.840240 
M368.104218,326.992218 
	C369.922089,327.098511 371.753021,327.399078 373.555542,327.277649 
	C381.635101,326.733612 387.118225,320.419434 387.153076,311.771027 
	C387.190704,302.440430 382.128204,296.420380 373.680542,295.750153 
	C365.559326,295.105835 359.386719,299.461426 357.378723,307.253326 
	C355.053345,316.276581 358.545227,323.181671 368.104218,326.992218 
z"/>
<path fill="#FAFBFB" opacity="1.000000" stroke="none" 
	d="
M632.615906,341.703491 
	C609.758972,332.865356 608.614563,300.057953 623.939392,286.560150 
	C632.655090,278.883545 649.642334,275.716370 661.931213,288.033783 
	C662.217590,285.731293 662.463501,283.754150 662.737427,281.552063 
	C668.417053,281.552063 673.842834,281.552063 680.058350,281.552063 
	C680.058350,283.333893 680.061951,285.075562 680.057739,286.817230 
	C680.018738,302.967743 679.980347,319.118286 679.938049,335.268799 
	C679.882202,356.599365 669.740723,367.818420 648.565613,369.368134 
	C637.520325,370.176483 627.168640,367.540527 617.339905,361.180847 
	C619.603638,356.891083 621.734741,352.852753 624.063110,348.440552 
	C626.334656,349.583252 628.108826,350.897034 630.087646,351.390381 
	C635.513550,352.743256 641.042053,354.772278 646.500061,354.684021 
	C657.983887,354.498322 663.374878,346.860870 661.269592,334.640747 
	C653.271545,343.246796 643.727112,345.101807 632.615906,341.703491 
M662.206299,313.302338 
	C662.186829,312.143524 662.234131,310.979095 662.137329,309.826782 
	C661.369385,300.685272 655.399414,295.362122 646.286682,295.661041 
	C638.113770,295.929199 632.135193,302.343872 631.923096,311.072357 
	C631.705017,320.048035 637.699890,326.854218 646.432495,327.545258 
	C654.186768,328.158905 660.953247,322.397614 662.206299,313.302338 
z"/>
<path fill="#FAFBFB" opacity="1.000000" stroke="none" 
	d="
M592.741638,338.816376 
	C576.232910,349.727844 554.807068,347.188904 544.263733,333.324860 
	C535.555847,321.874329 535.053894,306.182892 543.007324,294.052185 
	C550.600037,282.471558 566.075684,277.226868 581.139404,281.285919 
	C593.461121,284.606079 601.462585,292.443176 604.193726,304.967743 
	C607.088440,318.242188 603.553955,329.646851 592.741638,338.816376 
M563.675964,297.889099 
	C556.563782,302.255280 555.092529,309.052765 556.265442,316.535339 
	C557.195740,322.469818 560.607422,326.936981 566.583679,328.857086 
	C573.162354,330.970703 580.116638,328.627625 583.833191,323.222473 
	C588.067688,317.064026 587.779724,307.817780 583.162415,301.686279 
	C578.848511,295.957672 572.370911,294.514282 563.675964,297.889099 
z"/>
<path fill="#F9FAFB" opacity="1.000000" stroke="none" 
	d="
M450.601868,284.004120 
	C451.809723,283.250885 452.942047,282.073395 454.242767,281.841827 
	C456.298309,281.475922 458.466766,281.744415 460.938721,281.744415 
	C460.938721,276.113312 460.938721,271.005341 460.938721,265.541290 
	C467.042633,265.541290 472.801727,265.541290 479.258362,265.541290 
	C479.258362,270.627289 479.258362,275.854126 479.258362,281.685364 
	C484.137268,281.685364 488.350433,281.685364 492.862122,281.685364 
	C492.862122,286.878754 492.862122,291.469330 492.862122,296.779236 
	C488.549286,296.779236 484.179657,296.779236 479.393616,296.779236 
	C479.393616,306.463104 479.225525,315.442047 479.465637,324.410095 
	C479.583008,328.793243 482.368347,330.523468 486.697662,329.512878 
	C488.134216,329.177551 489.517487,328.613983 491.526062,327.958679 
	C492.705414,332.009644 493.990234,335.892487 494.870544,339.864929 
	C495.061432,340.726379 494.059082,342.318054 493.168457,342.882385 
	C482.733673,349.494720 467.674316,345.379150 462.108704,333.860992 
	C461.482239,321.104156 461.055481,309.045807 460.616486,296.641418 
	C457.449951,296.641418 454.505280,296.641418 451.245575,296.641418 
	C451.019714,292.207001 450.810791,288.105560 450.601868,284.004120 
z"/>
<path fill="#F6F7F9" opacity="1.000000" stroke="none" 
	d="
M524.856812,308.000000 
	C524.854309,320.303131 524.854309,332.106232 524.854309,344.315796 
	C518.626648,344.315796 512.733337,344.315796 506.479492,344.315796 
	C506.479492,315.544617 506.479492,286.829285 506.479492,257.733154 
	C512.377014,257.733154 518.270325,257.733154 524.859253,257.733154 
	C524.859253,274.350250 524.859253,290.925110 524.856812,308.000000 
z"/>
<path fill="#275277" opacity="1.000000" stroke="none" 
	d="
M404.831055,342.880157 
	C404.586517,323.868500 404.748322,304.896759 404.997803,285.463562 
	C407.741486,283.481293 410.703400,282.315826 412.980713,280.355164 
	C416.272614,277.520874 419.068481,274.110443 422.482666,270.872375 
	C426.978058,275.839081 431.981567,273.759186 436.867462,272.594879 
	C438.887573,275.492126 440.907654,278.389404 442.599304,281.643341 
	C441.540619,282.000031 440.810394,282.000061 439.798401,281.822449 
	C437.646576,280.218292 436.255859,279.913300 433.535828,280.955719 
	C430.143158,282.255890 425.873566,281.267914 421.945831,281.267914 
	C421.945831,302.897430 421.945831,323.474182 421.945831,344.772400 
	C427.995850,344.772400 433.782227,344.772400 439.568604,344.772400 
	C440.381226,346.482422 441.193878,348.192474 442.087494,350.072937 
	C440.540710,351.127930 439.268616,352.738220 438.143097,352.641571 
	C431.348389,352.057953 424.403015,351.766479 417.878204,350.005615 
	C413.356537,348.785370 409.429901,345.360107 404.831055,342.880157 
z"/>
<path fill="#FAFCFC" opacity="1.000000" stroke="none" 
	d="
M439.683197,344.474243 
	C433.782227,344.772400 427.995850,344.772400 421.945831,344.772400 
	C421.945831,323.474182 421.945831,302.897430 421.945831,281.267914 
	C425.873566,281.267914 430.143158,282.255890 433.535828,280.955719 
	C436.255859,279.913300 437.646576,280.218292 439.771667,282.290436 
	C440.112671,302.955811 440.198730,322.975555 440.284790,342.995300 
	C440.122437,343.388916 439.960114,343.782501 439.683197,344.474243 
z"/>
<path fill="#285276" opacity="1.000000" stroke="none" 
	d="
M440.657715,342.993683 
	C440.198730,322.975555 440.112671,302.955811 440.053406,282.468079 
	C440.810394,282.000061 441.540619,282.000031 442.636047,282.000000 
	C445.287811,282.668976 447.574432,283.337982 450.231445,284.005554 
	C450.810791,288.105560 451.019714,292.207001 451.245575,296.641418 
	C454.505280,296.641418 457.449951,296.641418 460.616486,296.641418 
	C461.055481,309.045807 461.482239,321.104156 461.902954,333.579620 
	C456.815399,336.834808 449.888947,335.450226 445.963501,341.210846 
	C445.165802,342.381500 442.717834,342.427551 440.657715,342.993683 
z"/>
<path fill="#F7F9FA" opacity="1.000000" stroke="none" 
	d="
M437.084717,272.347382 
	C431.981567,273.759186 426.978058,275.839081 422.633942,270.508362 
	C419.728180,265.966400 418.890381,261.640930 421.831024,257.153229 
	C424.069946,253.736374 427.322876,252.549683 431.262146,252.799042 
	C436.169800,253.109665 440.064484,255.164963 441.595306,259.982971 
	C443.153442,264.886841 441.873596,269.173950 437.084717,272.347382 
z"/>
<path fill="#688CA7" opacity="1.000000" stroke="none" 
	d="
M353.992004,604.013489 
	C358.382660,603.995056 362.773346,603.976624 367.581116,603.975586 
	C368.015656,604.377869 368.033020,604.762695 368.081787,605.436768 
	C363.675568,605.771484 359.237976,605.816956 354.349304,605.474731 
	C353.929504,604.729248 353.960754,604.371338 353.992004,604.013489 
z"/>
<path fill="#315C81" opacity="1.000000" stroke="none" 
	d="
M353.700562,603.835205 
	C353.960754,604.371338 353.929504,604.729248 353.889954,605.357178 
	C334.639648,605.627319 315.397614,605.627319 295.853088,605.627319 
	C295.853088,600.271118 295.853088,595.508118 295.853088,590.083008 
	C300.349274,590.083008 304.762970,590.088257 309.176666,590.081909 
	C318.985840,590.067749 328.798584,589.910278 338.600525,590.167847 
	C340.202332,590.210022 341.971741,591.851868 343.290527,593.137207 
	C346.772858,596.531494 350.050171,600.136108 353.700562,603.835205 
z"/>
<path fill="#31597B" opacity="1.000000" stroke="none" 
	d="
M616.025635,690.363770 
	C609.605408,691.351379 605.724426,689.643677 603.501465,685.160889 
	C601.504028,681.132996 602.324768,676.250427 605.680786,673.299927 
	C608.750366,670.601318 612.334351,669.394653 616.295532,670.991028 
	C620.326477,672.615540 622.665649,675.747986 622.974854,680.127197 
	C623.324890,685.085022 620.749329,688.265503 616.025635,690.363770 
z"/>
<path fill="#31597B" opacity="1.000000" stroke="none" 
	d="
M489.619629,550.312378 
	C494.830078,547.867554 499.158478,548.799133 502.530579,552.832703 
	C505.470520,556.349304 505.822601,560.392883 503.399780,564.432373 
	C500.843567,568.694092 496.865387,569.913574 492.228088,569.136292 
	C487.994690,568.426697 485.601990,565.594116 484.510406,561.577271 
	C483.167358,556.635010 485.534698,553.266235 489.619629,550.312378 
z"/>
<path fill="#315B7E" opacity="1.000000" stroke="none" 
	d="
M416.809143,760.065186 
	C424.615845,762.085083 427.867828,767.270935 425.737915,773.693115 
	C423.828156,779.451477 417.566711,782.238403 411.966614,779.822693 
	C407.712738,777.987610 405.348907,773.646912 405.971283,768.813232 
	C406.633759,763.668152 410.106171,760.750122 416.809143,760.065186 
z"/>
<path fill="#315B7E" opacity="1.000000" stroke="none" 
	d="
M709.501160,613.046997 
	C715.699463,615.549683 718.414612,619.313965 717.919067,624.228394 
	C717.475647,628.625366 714.048523,632.346252 709.765320,633.105774 
	C705.396362,633.880554 701.901733,632.328979 699.282104,628.909668 
	C696.837585,625.718811 696.601379,622.099915 698.455872,618.608459 
	C700.674805,614.430786 704.199158,612.293335 709.501160,613.046997 
z"/>
<path fill="#31597B" opacity="1.000000" stroke="none" 
	d="
M351.383392,587.445862 
	C350.954773,582.040527 352.967285,578.205505 357.648285,576.367310 
	C361.608185,574.812317 365.520355,575.459045 368.667145,578.634888 
	C372.921844,582.928894 372.741364,589.329468 368.318390,593.200134 
	C363.695923,597.245300 357.013885,596.675659 353.408234,591.812439 
	C352.543243,590.645691 352.107056,589.161072 351.383392,587.445862 
z"/>
<path fill="#31597B" opacity="1.000000" stroke="none" 
	d="
M426.269897,519.404541 
	C423.649933,512.374207 426.211578,506.533417 432.333435,504.791962 
	C438.252686,503.108154 444.158020,506.890106 445.291931,513.090881 
	C446.308075,518.647644 442.172211,523.974609 436.241730,524.518616 
	C432.092041,524.899231 428.861603,523.102051 426.269897,519.404541 
z"/>
<path fill="#315B7E" opacity="1.000000" stroke="none" 
	d="
M760.494995,509.444916 
	C757.300232,505.153717 757.412415,501.135071 760.276672,497.174072 
	C762.912964,493.528381 766.684509,492.402435 770.868835,493.245575 
	C774.947388,494.067352 777.603577,496.817688 778.546936,500.901581 
	C779.614990,505.525635 777.665283,509.071960 773.924988,511.604980 
	C769.951294,514.296082 765.474304,513.557068 760.494995,509.444916 
z"/>
<path fill="#31597B" opacity="1.000000" stroke="none" 
	d="
M593.424194,565.769531 
	C586.712280,568.348083 581.808655,567.111694 579.131348,562.447388 
	C576.690979,558.195801 577.470459,552.779114 580.965759,549.699951 
	C585.292908,545.888000 591.864563,546.359131 595.680725,550.754883 
	C599.526794,555.185059 598.774414,561.028809 593.424194,565.769531 
z"/>
<path fill="#2A567B" opacity="1.000000" stroke="none" 
	d="
M367.689941,326.908264 
	C358.545227,323.181671 355.053345,316.276581 357.378723,307.253326 
	C359.386719,299.461426 365.559326,295.105835 373.680542,295.750153 
	C382.128204,296.420380 387.190704,302.440430 387.153076,311.771027 
	C387.118225,320.419434 381.635101,326.733612 373.555542,327.277649 
	C371.753021,327.399078 369.922089,327.098511 367.689941,326.908264 
z"/>
<path fill="#2B577A" opacity="1.000000" stroke="none" 
	d="
M662.169312,313.739990 
	C660.953247,322.397614 654.186768,328.158905 646.432495,327.545258 
	C637.699890,326.854218 631.705017,320.048035 631.923096,311.072357 
	C632.135193,302.343872 638.113770,295.929199 646.286682,295.661041 
	C655.399414,295.362122 661.369385,300.685272 662.137329,309.826782 
	C662.234131,310.979095 662.186829,312.143524 662.169312,313.739990 
z"/>
<path fill="#2B577A" opacity="1.000000" stroke="none" 
	d="
M564.007935,297.690552 
	C572.370911,294.514282 578.848511,295.957672 583.162415,301.686279 
	C587.779724,307.817780 588.067688,317.064026 583.833191,323.222473 
	C580.116638,328.627625 573.162354,330.970703 566.583679,328.857086 
	C560.607422,326.936981 557.195740,322.469818 556.265442,316.535339 
	C555.092529,309.052765 556.563782,302.255280 564.007935,297.690552 
z"/>
</svg>